<svg xmlns="http://www.w3.org/2000/svg" xmlns:xlink="http://www.w3.org/1999/xlink" contentStyleType="text/css" height="1217px" preserveAspectRatio="none" style="width:1424px;height:1217px;background:#FFFFFF;" version="1.1" viewBox="0 0 1424 1217" width="1424px" zoomAndPan="magnify"><defs/><g><!--cluster enums--><g id="cluster_enums"><path d="M824.5,819.48 L877.8496,819.48 A3.75,3.75 0 0 1 880.3496,821.98 L887.3496,841.7769 L1157.5,841.7769 A2.5,2.5 0 0 1 1160,844.2769 L1160,930.28 A2.5,2.5 0 0 1 1157.5,932.78 L824.5,932.78 A2.5,2.5 0 0 1 822,930.28 L822,821.98 A2.5,2.5 0 0 1 824.5,819.48 " fill="none" style="stroke:#000000;stroke-width:1.5;"/><line style="stroke:#000000;stroke-width:1.5;" x1="822" x2="887.3496" y1="841.7769" y2="841.7769"/><text fill="#000000" font-family="sans-serif" font-size="14" font-weight="bold" lengthAdjust="spacing" textLength="52.3496" x="826" y="834.4751">enums</text></g><!--cluster gestion--><g id="cluster_gestion"><path d="M8.5,616.18 L68.4258,616.18 A3.75,3.75 0 0 1 70.9258,618.68 L77.9258,638.4769 L779.5,638.4769 A2.5,2.5 0 0 1 782,640.9769 L782,1207.87 A2.5,2.5 0 0 1 779.5,1210.37 L8.5,1210.37 A2.5,2.5 0 0 1 6,1207.87 L6,618.68 A2.5,2.5 0 0 1 8.5,616.18 " fill="none" style="stroke:#000000;stroke-width:1.5;"/><line style="stroke:#000000;stroke-width:1.5;" x1="6" x2="77.9258" y1="638.4769" y2="638.4769"/><text fill="#000000" font-family="sans-serif" font-size="14" font-weight="bold" lengthAdjust="spacing" textLength="58.9258" x="10" y="631.1751">gestion</text></g><!--cluster gestionConferencias--><g id="cluster_gestionConferencias"><path d="M40.5,667.18 L203.1152,667.18 A3.75,3.75 0 0 1 205.6152,669.68 L212.6152,689.4769 L312.5,689.4769 A2.5,2.5 0 0 1 315,691.9769 L315,922.28 A2.5,2.5 0 0 1 312.5,924.78 L40.5,924.78 A2.5,2.5 0 0 1 38,922.28 L38,669.68 A2.5,2.5 0 0 1 40.5,667.18 " fill="none" style="stroke:#000000;stroke-width:1.5;"/><line style="stroke:#000000;stroke-width:1.5;" x1="38" x2="212.6152" y1="689.4769" y2="689.4769"/><text fill="#000000" font-family="sans-serif" font-size="14" font-weight="bold" lengthAdjust="spacing" textLength="161.6152" x="42" y="682.1751">gestionConferencias</text></g><!--cluster gestionUsuarios--><g id="cluster_gestionUsuarios"><path d="M341.5,667.18 L470.1953,667.18 A3.75,3.75 0 0 1 472.6953,669.68 L479.6953,689.4769 L739.5,689.4769 A2.5,2.5 0 0 1 742,691.9769 L742,922.28 A2.5,2.5 0 0 1 739.5,924.78 L341.5,924.78 A2.5,2.5 0 0 1 339,922.28 L339,669.68 A2.5,2.5 0 0 1 341.5,667.18 " fill="none" style="stroke:#000000;stroke-width:1.5;"/><line style="stroke:#000000;stroke-width:1.5;" x1="339" x2="479.6953" y1="689.4769" y2="689.4769"/><text fill="#000000" font-family="sans-serif" font-size="14" font-weight="bold" lengthAdjust="spacing" textLength="127.6953" x="343" y="682.1751">gestionUsuarios</text></g><!--cluster gestionArticulos--><g id="cluster_gestionArticulos"><path d="M55.5,973.78 L185.6719,973.78 A3.75,3.75 0 0 1 188.1719,976.28 L195.1719,996.0769 L532.5,996.0769 A2.5,2.5 0 0 1 535,998.5769 L535,1175.87 A2.5,2.5 0 0 1 532.5,1178.37 L55.5,1178.37 A2.5,2.5 0 0 1 53,1175.87 L53,976.28 A2.5,2.5 0 0 1 55.5,973.78 " fill="none" style="stroke:#000000;stroke-width:1.5;"/><line style="stroke:#000000;stroke-width:1.5;" x1="53" x2="195.1719" y1="996.0769" y2="996.0769"/><text fill="#000000" font-family="sans-serif" font-size="14" font-weight="bold" lengthAdjust="spacing" textLength="129.1719" x="57" y="988.7751">gestionArticulos</text></g><!--cluster procesos--><g id="cluster_procesos"><path d="M742.5,6 L814.1221,6 A3.75,3.75 0 0 1 816.6221,8.5 L823.6221,28.2969 L1155.5,28.2969 A2.5,2.5 0 0 1 1158,30.7969 L1158,277.09 A2.5,2.5 0 0 1 1155.5,279.59 L742.5,279.59 A2.5,2.5 0 0 1 740,277.09 L740,8.5 A2.5,2.5 0 0 1 742.5,6 " fill="none" style="stroke:#000000;stroke-width:1.5;"/><line style="stroke:#000000;stroke-width:1.5;" x1="740" x2="823.6221" y1="28.2969" y2="28.2969"/><text fill="#000000" font-family="sans-serif" font-size="14" font-weight="bold" lengthAdjust="spacing" textLength="70.6221" x="744" y="20.9951">procesos</text></g><!--cluster criteriosSeleccion--><g id="cluster_criteriosSeleccion"><path d="M309.5,166.29 L451.1973,166.29 A3.75,3.75 0 0 1 453.6973,168.79 L460.6973,188.5869 L668.5,188.5869 A2.5,2.5 0 0 1 671,191.0869 L671,439.39 A2.5,2.5 0 0 1 668.5,441.89 L309.5,441.89 A2.5,2.5 0 0 1 307,439.39 L307,168.79 A2.5,2.5 0 0 1 309.5,166.29 " fill="none" style="stroke:#000000;stroke-width:1.5;"/><line style="stroke:#000000;stroke-width:1.5;" x1="307" x2="460.6973" y1="188.5869" y2="188.5869"/><text fill="#000000" font-family="sans-serif" font-size="14" font-weight="bold" lengthAdjust="spacing" textLength="140.6973" x="311" y="181.2851">criteriosSeleccion</text></g><!--cluster servicios--><g id="cluster_servicios"><path d="M989.5,328.59 L1060.2061,328.59 A3.75,3.75 0 0 1 1062.7061,331.09 L1069.7061,350.8869 L1414.5,350.8869 A2.5,2.5 0 0 1 1417,353.3869 L1417,564.68 A2.5,2.5 0 0 1 1414.5,567.18 L989.5,567.18 A2.5,2.5 0 0 1 987,564.68 L987,331.09 A2.5,2.5 0 0 1 989.5,328.59 " fill="none" style="stroke:#000000;stroke-width:1.5;"/><line style="stroke:#000000;stroke-width:1.5;" x1="987" x2="1069.7061" y1="350.8869" y2="350.8869"/><text fill="#000000" font-family="sans-serif" font-size="14" font-weight="bold" lengthAdjust="spacing" textLength="69.7061" x="991" y="343.5851">servicios</text></g><!--entity tipoSesion--><g id="elem_tipoSesion"><rect fill="#F1F1F1" height="46.2969" rx="2.5" ry="2.5" style="stroke:#181818;stroke-width:0.5;" width="112.9531" x="845.52" y="862.48"/><rect fill="#F1F1F1" height="10" style="stroke:#181818;stroke-width:0.5;" width="15" x="938.4731" y="867.48"/><rect fill="#F1F1F1" height="2" style="stroke:#181818;stroke-width:0.5;" width="4" x="936.4731" y="869.48"/><rect fill="#F1F1F1" height="2" style="stroke:#181818;stroke-width:0.5;" width="4" x="936.4731" y="873.48"/><text fill="#000000" font-family="sans-serif" font-size="14" lengthAdjust="spacing" textLength="72.9531" x="860.52" y="895.4751">tipoSesion</text></g><!--entity TipoArticulo--><g id="elem_TipoArticulo"><rect fill="#F1F1F1" height="46.2969" rx="2.5" ry="2.5" style="stroke:#181818;stroke-width:0.5;" width="123.6309" x="993.18" y="862.48"/><rect fill="#F1F1F1" height="10" style="stroke:#181818;stroke-width:0.5;" width="15" x="1096.8109" y="867.48"/><rect fill="#F1F1F1" height="2" style="stroke:#181818;stroke-width:0.5;" width="4" x="1094.8109" y="869.48"/><rect fill="#F1F1F1" height="2" style="stroke:#181818;stroke-width:0.5;" width="4" x="1094.8109" y="873.48"/><text fill="#000000" font-family="sans-serif" font-size="14" lengthAdjust="spacing" textLength="83.6309" x="1008.18" y="895.4751">TipoArticulo</text></g><!--entity Conferencia--><g id="elem_Conferencia"><rect fill="#F1F1F1" height="46.2969" rx="2.5" ry="2.5" style="stroke:#181818;stroke-width:0.5;" width="124.1641" x="53.92" y="702.18"/><rect fill="#F1F1F1" height="10" style="stroke:#181818;stroke-width:0.5;" width="15" x="158.0841" y="707.18"/><rect fill="#F1F1F1" height="2" style="stroke:#181818;stroke-width:0.5;" width="4" x="156.0841" y="709.18"/><rect fill="#F1F1F1" height="2" style="stroke:#181818;stroke-width:0.5;" width="4" x="156.0841" y="713.18"/><text fill="#000000" font-family="sans-serif" font-size="14" lengthAdjust="spacing" textLength="84.1641" x="68.92" y="735.1751">Conferencia</text></g><!--entity Sesion--><g id="elem_Sesion"><rect fill="#F1F1F1" height="46.2969" rx="2.5" ry="2.5" style="stroke:#181818;stroke-width:0.5;" width="86.1221" x="212.94" y="702.18"/><rect fill="#F1F1F1" height="10" style="stroke:#181818;stroke-width:0.5;" width="15" x="279.0621" y="707.18"/><rect fill="#F1F1F1" height="2" style="stroke:#181818;stroke-width:0.5;" width="4" x="277.0621" y="709.18"/><rect fill="#F1F1F1" height="2" style="stroke:#181818;stroke-width:0.5;" width="4" x="277.0621" y="713.18"/><text fill="#000000" font-family="sans-serif" font-size="14" lengthAdjust="spacing" textLength="46.1221" x="227.94" y="735.1751">Sesion</text></g><!--entity Singleton--><g id="elem_Singleton"><rect fill="#F1F1F1" height="46.2969" rx="2.5" ry="2.5" style="stroke:#181818;stroke-width:0.5;" width="105.9668" x="63.02" y="862.48"/><rect fill="#F1F1F1" height="10" style="stroke:#181818;stroke-width:0.5;" width="15" x="148.9868" y="867.48"/><rect fill="#F1F1F1" height="2" style="stroke:#181818;stroke-width:0.5;" width="4" x="146.9868" y="869.48"/><rect fill="#F1F1F1" height="2" style="stroke:#181818;stroke-width:0.5;" width="4" x="146.9868" y="873.48"/><text fill="#000000" font-family="sans-serif" font-size="14" lengthAdjust="spacing" textLength="65.9668" x="78.02" y="895.4751">Singleton</text></g><!--entity Usuario--><g id="elem_Usuario"><rect fill="#F1F1F1" height="46.2969" rx="2.5" ry="2.5" style="stroke:#181818;stroke-width:0.5;" width="93.2041" x="355.4" y="702.18"/><rect fill="#F1F1F1" height="10" style="stroke:#181818;stroke-width:0.5;" width="15" x="428.6041" y="707.18"/><rect fill="#F1F1F1" height="2" style="stroke:#181818;stroke-width:0.5;" width="4" x="426.6041" y="709.18"/><rect fill="#F1F1F1" height="2" style="stroke:#181818;stroke-width:0.5;" width="4" x="426.6041" y="713.18"/><text fill="#000000" font-family="sans-serif" font-size="14" lengthAdjust="spacing" textLength="53.2041" x="370.4" y="735.1751">Usuario</text></g><!--entity FactoryUsuario--><g id="elem_FactoryUsuario"><rect fill="#F1F1F1" height="46.2969" rx="2.5" ry="2.5" style="stroke:#181818;stroke-width:0.5;" width="145.6289" x="483.19" y="702.18"/><rect fill="#F1F1F1" height="10" style="stroke:#181818;stroke-width:0.5;" width="15" x="608.8189" y="707.18"/><rect fill="#F1F1F1" height="2" style="stroke:#181818;stroke-width:0.5;" width="4" x="606.8189" y="709.18"/><rect fill="#F1F1F1" height="2" style="stroke:#181818;stroke-width:0.5;" width="4" x="606.8189" y="713.18"/><text fill="#000000" font-family="sans-serif" font-size="14" lengthAdjust="spacing" textLength="105.6289" x="498.19" y="735.1751">FactoryUsuario</text></g><!--entity Rol--><g id="elem_Rol"><rect fill="#F1F1F1" height="46.2969" rx="2.5" ry="2.5" style="stroke:#181818;stroke-width:0.5;" width="62.1826" x="663.91" y="702.18"/><rect fill="#F1F1F1" height="10" style="stroke:#181818;stroke-width:0.5;" width="15" x="706.0926" y="707.18"/><rect fill="#F1F1F1" height="2" style="stroke:#181818;stroke-width:0.5;" width="4" x="704.0926" y="709.18"/><rect fill="#F1F1F1" height="2" style="stroke:#181818;stroke-width:0.5;" width="4" x="704.0926" y="713.18"/><text fill="#000000" font-family="sans-serif" font-size="14" lengthAdjust="spacing" textLength="22.1826" x="678.91" y="735.1751">Rol</text></g><!--entity Autor--><g id="elem_Autor"><rect fill="#F1F1F1" height="46.2969" rx="2.5" ry="2.5" style="stroke:#181818;stroke-width:0.5;" width="78.2607" x="362.87" y="862.48"/><rect fill="#F1F1F1" height="10" style="stroke:#181818;stroke-width:0.5;" width="15" x="421.1307" y="867.48"/><rect fill="#F1F1F1" height="2" style="stroke:#181818;stroke-width:0.5;" width="4" x="419.1307" y="869.48"/><rect fill="#F1F1F1" height="2" style="stroke:#181818;stroke-width:0.5;" width="4" x="419.1307" y="873.48"/><text fill="#000000" font-family="sans-serif" font-size="14" lengthAdjust="spacing" textLength="38.2607" x="377.87" y="895.4751">Autor</text></g><!--entity Revisor--><g id="elem_Revisor"><rect fill="#F1F1F1" height="46.2969" rx="2.5" ry="2.5" style="stroke:#181818;stroke-width:0.5;" width="92.1309" x="475.93" y="862.48"/><rect fill="#F1F1F1" height="10" style="stroke:#181818;stroke-width:0.5;" width="15" x="548.0609" y="867.48"/><rect fill="#F1F1F1" height="2" style="stroke:#181818;stroke-width:0.5;" width="4" x="546.0609" y="869.48"/><rect fill="#F1F1F1" height="2" style="stroke:#181818;stroke-width:0.5;" width="4" x="546.0609" y="873.48"/><text fill="#000000" font-family="sans-serif" font-size="14" lengthAdjust="spacing" textLength="52.1309" x="490.93" y="895.4751">Revisor</text></g><!--entity Chair--><g id="elem_Chair"><rect fill="#F1F1F1" height="46.2969" rx="2.5" ry="2.5" style="stroke:#181818;stroke-width:0.5;" width="76.873" x="603.56" y="862.48"/><rect fill="#F1F1F1" height="10" style="stroke:#181818;stroke-width:0.5;" width="15" x="660.433" y="867.48"/><rect fill="#F1F1F1" height="2" style="stroke:#181818;stroke-width:0.5;" width="4" x="658.433" y="869.48"/><rect fill="#F1F1F1" height="2" style="stroke:#181818;stroke-width:0.5;" width="4" x="658.433" y="873.48"/><text fill="#000000" font-family="sans-serif" font-size="14" lengthAdjust="spacing" textLength="36.873" x="618.56" y="895.4751">Chair</text></g><!--entity Articulo--><g id="elem_Articulo"><rect fill="#F1F1F1" height="46.2969" rx="2.5" ry="2.5" style="stroke:#181818;stroke-width:0.5;" width="93.7373" x="69.13" y="1008.78"/><rect fill="#F1F1F1" height="10" style="stroke:#181818;stroke-width:0.5;" width="15" x="142.8673" y="1013.78"/><rect fill="#F1F1F1" height="2" style="stroke:#181818;stroke-width:0.5;" width="4" x="140.8673" y="1015.78"/><rect fill="#F1F1F1" height="2" style="stroke:#181818;stroke-width:0.5;" width="4" x="140.8673" y="1019.78"/><text fill="#000000" font-family="sans-serif" font-size="14" lengthAdjust="spacing" textLength="53.7373" x="84.13" y="1041.7751">Articulo</text></g><!--entity ArticuloRegular--><g id="elem_ArticuloRegular"><rect fill="#F1F1F1" height="46.2969" rx="2.5" ry="2.5" style="stroke:#181818;stroke-width:0.5;" width="148.0625" x="197.97" y="1008.78"/><rect fill="#F1F1F1" height="10" style="stroke:#181818;stroke-width:0.5;" width="15" x="326.0325" y="1013.78"/><rect fill="#F1F1F1" height="2" style="stroke:#181818;stroke-width:0.5;" width="4" x="324.0325" y="1015.78"/><rect fill="#F1F1F1" height="2" style="stroke:#181818;stroke-width:0.5;" width="4" x="324.0325" y="1019.78"/><text fill="#000000" font-family="sans-serif" font-size="14" lengthAdjust="spacing" textLength="108.0625" x="212.97" y="1041.7751">ArticuloRegular</text></g><!--entity ArticuloPoster--><g id="elem_ArticuloPoster"><rect fill="#F1F1F1" height="46.2969" rx="2.5" ry="2.5" style="stroke:#181818;stroke-width:0.5;" width="137.8975" x="381.05" y="1008.78"/><rect fill="#F1F1F1" height="10" style="stroke:#181818;stroke-width:0.5;" width="15" x="498.9475" y="1013.78"/><rect fill="#F1F1F1" height="2" style="stroke:#181818;stroke-width:0.5;" width="4" x="496.9475" y="1015.78"/><rect fill="#F1F1F1" height="2" style="stroke:#181818;stroke-width:0.5;" width="4" x="496.9475" y="1019.78"/><text fill="#000000" font-family="sans-serif" font-size="14" lengthAdjust="spacing" textLength="97.8975" x="396.05" y="1041.7751">ArticuloPoster</text></g><!--entity FactoryArticulo--><g id="elem_FactoryArticulo"><rect fill="#F1F1F1" height="46.2969" rx="2.5" ry="2.5" style="stroke:#181818;stroke-width:0.5;" width="146.1621" x="68.92" y="1116.07"/><rect fill="#F1F1F1" height="10" style="stroke:#181818;stroke-width:0.5;" width="15" x="195.0821" y="1121.07"/><rect fill="#F1F1F1" height="2" style="stroke:#181818;stroke-width:0.5;" width="4" x="193.0821" y="1123.07"/><rect fill="#F1F1F1" height="2" style="stroke:#181818;stroke-width:0.5;" width="4" x="193.0821" y="1127.07"/><text fill="#000000" font-family="sans-serif" font-size="14" lengthAdjust="spacing" textLength="106.1621" x="83.92" y="1149.0651">FactoryArticulo</text></g><!--entity Revision--><g id="elem_Revision"><rect fill="#F1F1F1" height="46.2969" rx="2.5" ry="2.5" style="stroke:#181818;stroke-width:0.5;" width="99.1377" x="250.43" y="1116.07"/><rect fill="#F1F1F1" height="10" style="stroke:#181818;stroke-width:0.5;" width="15" x="329.5677" y="1121.07"/><rect fill="#F1F1F1" height="2" style="stroke:#181818;stroke-width:0.5;" width="4" x="327.5677" y="1123.07"/><rect fill="#F1F1F1" height="2" style="stroke:#181818;stroke-width:0.5;" width="4" x="327.5677" y="1127.07"/><text fill="#000000" font-family="sans-serif" font-size="14" lengthAdjust="spacing" textLength="59.1377" x="265.43" y="1149.0651">Revision</text></g><!--entity Observer--><g id="elem_Observer"><rect fill="#F1F1F1" height="46.2969" rx="2.5" ry="2.5" style="stroke:#181818;stroke-width:0.5;" width="104.2236" x="384.89" y="1116.07"/><rect fill="#F1F1F1" height="10" style="stroke:#181818;stroke-width:0.5;" width="15" x="469.1136" y="1121.07"/><rect fill="#F1F1F1" height="2" style="stroke:#181818;stroke-width:0.5;" width="4" x="467.1136" y="1123.07"/><rect fill="#F1F1F1" height="2" style="stroke:#181818;stroke-width:0.5;" width="4" x="467.1136" y="1127.07"/><text fill="#000000" font-family="sans-serif" font-size="14" lengthAdjust="spacing" textLength="64.2236" x="399.89" y="1149.0651">Observer</text></g><!--entity ProcesoRecepcion--><g id="elem_ProcesoRecepcion"><rect fill="#F1F1F1" height="46.2969" rx="2.5" ry="2.5" style="stroke:#181818;stroke-width:0.5;" width="167.4971" x="966.25" y="49"/><rect fill="#F1F1F1" height="10" style="stroke:#181818;stroke-width:0.5;" width="15" x="1113.7471" y="54"/><rect fill="#F1F1F1" height="2" style="stroke:#181818;stroke-width:0.5;" width="4" x="1111.7471" y="56"/><rect fill="#F1F1F1" height="2" style="stroke:#181818;stroke-width:0.5;" width="4" x="1111.7471" y="60"/><text fill="#000000" font-family="sans-serif" font-size="14" lengthAdjust="spacing" textLength="127.4971" x="981.25" y="81.9951">ProcesoRecepcion</text></g><!--entity ProcesoBidding--><g id="elem_ProcesoBidding"><rect fill="#F1F1F1" height="46.2969" rx="2.5" ry="2.5" style="stroke:#181818;stroke-width:0.5;" width="147.8506" x="783.07" y="49"/><rect fill="#F1F1F1" height="10" style="stroke:#181818;stroke-width:0.5;" width="15" x="910.9206" y="54"/><rect fill="#F1F1F1" height="2" style="stroke:#181818;stroke-width:0.5;" width="4" x="908.9206" y="56"/><rect fill="#F1F1F1" height="2" style="stroke:#181818;stroke-width:0.5;" width="4" x="908.9206" y="60"/><text fill="#000000" font-family="sans-serif" font-size="14" lengthAdjust="spacing" textLength="107.8506" x="798.07" y="81.9951">ProcesoBidding</text></g><!--entity ProcesoRevision--><g id="elem_ProcesoRevision"><rect fill="#F1F1F1" height="46.2969" rx="2.5" ry="2.5" style="stroke:#181818;stroke-width:0.5;" width="154.0713" x="782.96" y="209.29"/><rect fill="#F1F1F1" height="10" style="stroke:#181818;stroke-width:0.5;" width="15" x="917.0313" y="214.29"/><rect fill="#F1F1F1" height="2" style="stroke:#181818;stroke-width:0.5;" width="4" x="915.0313" y="216.29"/><rect fill="#F1F1F1" height="2" style="stroke:#181818;stroke-width:0.5;" width="4" x="915.0313" y="220.29"/><text fill="#000000" font-family="sans-serif" font-size="14" lengthAdjust="spacing" textLength="114.0713" x="797.96" y="242.2851">ProcesoRevision</text></g><!--entity ProcesoSeleccion--><g id="elem_ProcesoSeleccion"><rect fill="#F1F1F1" height="46.2969" rx="2.5" ry="2.5" style="stroke:#181818;stroke-width:0.5;" width="161.6592" x="972.17" y="209.29"/><rect fill="#F1F1F1" height="10" style="stroke:#181818;stroke-width:0.5;" width="15" x="1113.8292" y="214.29"/><rect fill="#F1F1F1" height="2" style="stroke:#181818;stroke-width:0.5;" width="4" x="1111.8292" y="216.29"/><rect fill="#F1F1F1" height="2" style="stroke:#181818;stroke-width:0.5;" width="4" x="1111.8292" y="220.29"/><text fill="#000000" font-family="sans-serif" font-size="14" lengthAdjust="spacing" textLength="121.6592" x="987.17" y="242.2851">ProcesoSeleccion</text></g><!--entity CriterioSeleccion--><g id="elem_CriterioSeleccion"><rect fill="#F1F1F1" height="46.2969" rx="2.5" ry="2.5" style="stroke:#181818;stroke-width:0.5;" width="158.46" x="350.77" y="209.29"/><rect fill="#F1F1F1" height="10" style="stroke:#181818;stroke-width:0.5;" width="15" x="489.23" y="214.29"/><rect fill="#F1F1F1" height="2" style="stroke:#181818;stroke-width:0.5;" width="4" x="487.23" y="216.29"/><rect fill="#F1F1F1" height="2" style="stroke:#181818;stroke-width:0.5;" width="4" x="487.23" y="220.29"/><text fill="#000000" font-family="sans-serif" font-size="14" lengthAdjust="spacing" textLength="118.46" x="365.77" y="242.2851">CriterioSeleccion</text></g><!--entity CorteFijo--><g id="elem_CorteFijo"><rect fill="#F1F1F1" height="46.2969" rx="2.5" ry="2.5" style="stroke:#181818;stroke-width:0.5;" width="102.5967" x="544.7" y="209.29"/><rect fill="#F1F1F1" height="10" style="stroke:#181818;stroke-width:0.5;" width="15" x="627.2967" y="214.29"/><rect fill="#F1F1F1" height="2" style="stroke:#181818;stroke-width:0.5;" width="4" x="625.2967" y="216.29"/><rect fill="#F1F1F1" height="2" style="stroke:#181818;stroke-width:0.5;" width="4" x="625.2967" y="220.29"/><text fill="#000000" font-family="sans-serif" font-size="14" lengthAdjust="spacing" textLength="62.5967" x="559.7" y="242.2851">CorteFijo</text></g><!--entity Mejores--><g id="elem_Mejores"><rect fill="#F1F1F1" height="46.2969" rx="2.5" ry="2.5" style="stroke:#181818;stroke-width:0.5;" width="94.8105" x="382.59" y="371.59"/><rect fill="#F1F1F1" height="10" style="stroke:#181818;stroke-width:0.5;" width="15" x="457.4005" y="376.59"/><rect fill="#F1F1F1" height="2" style="stroke:#181818;stroke-width:0.5;" width="4" x="455.4005" y="378.59"/><rect fill="#F1F1F1" height="2" style="stroke:#181818;stroke-width:0.5;" width="4" x="455.4005" y="382.59"/><text fill="#000000" font-family="sans-serif" font-size="14" lengthAdjust="spacing" textLength="54.8105" x="397.59" y="404.5851">Mejores</text></g><!--entity Strategy--><g id="elem_Strategy"><rect fill="#F1F1F1" height="46.2969" rx="2.5" ry="2.5" style="stroke:#181818;stroke-width:0.5;" width="99.9854" x="512.01" y="371.59"/><rect fill="#F1F1F1" height="10" style="stroke:#181818;stroke-width:0.5;" width="15" x="591.9954" y="376.59"/><rect fill="#F1F1F1" height="2" style="stroke:#181818;stroke-width:0.5;" width="4" x="589.9954" y="378.59"/><rect fill="#F1F1F1" height="2" style="stroke:#181818;stroke-width:0.5;" width="4" x="589.9954" y="382.59"/><text fill="#000000" font-family="sans-serif" font-size="14" lengthAdjust="spacing" textLength="59.9854" x="527.01" y="404.5851">Strategy</text></g><!--entity ServicioConferencia--><g id="elem_ServicioConferencia"><rect fill="#F1F1F1" height="46.2969" rx="2.5" ry="2.5" style="stroke:#181818;stroke-width:0.5;" width="179.7471" x="1030.13" y="371.59"/><rect fill="#F1F1F1" height="10" style="stroke:#181818;stroke-width:0.5;" width="15" x="1189.8771" y="376.59"/><rect fill="#F1F1F1" height="2" style="stroke:#181818;stroke-width:0.5;" width="4" x="1187.8771" y="378.59"/><rect fill="#F1F1F1" height="2" style="stroke:#181818;stroke-width:0.5;" width="4" x="1187.8771" y="382.59"/><text fill="#000000" font-family="sans-serif" font-size="14" lengthAdjust="spacing" textLength="139.7471" x="1045.13" y="404.5851">ServicioConferencia</text></g><!--entity ServicioUsuario--><g id="elem_ServicioUsuario"><rect fill="#F1F1F1" height="46.2969" rx="2.5" ry="2.5" style="stroke:#181818;stroke-width:0.5;" width="148.7871" x="1244.61" y="371.59"/><rect fill="#F1F1F1" height="10" style="stroke:#181818;stroke-width:0.5;" width="15" x="1373.3971" y="376.59"/><rect fill="#F1F1F1" height="2" style="stroke:#181818;stroke-width:0.5;" width="4" x="1371.3971" y="378.59"/><rect fill="#F1F1F1" height="2" style="stroke:#181818;stroke-width:0.5;" width="4" x="1371.3971" y="382.59"/><text fill="#000000" font-family="sans-serif" font-size="14" lengthAdjust="spacing" textLength="108.7871" x="1259.61" y="404.5851">ServicioUsuario</text></g><!--entity ServicioSesion--><g id="elem_ServicioSesion"><rect fill="#F1F1F1" height="46.2969" rx="2.5" ry="2.5" style="stroke:#181818;stroke-width:0.5;" width="141.7051" x="1049.15" y="496.89"/><rect fill="#F1F1F1" height="10" style="stroke:#181818;stroke-width:0.5;" width="15" x="1170.8551" y="501.89"/><rect fill="#F1F1F1" height="2" style="stroke:#181818;stroke-width:0.5;" width="4" x="1168.8551" y="503.89"/><rect fill="#F1F1F1" height="2" style="stroke:#181818;stroke-width:0.5;" width="4" x="1168.8551" y="507.89"/><text fill="#000000" font-family="sans-serif" font-size="14" lengthAdjust="spacing" textLength="101.7051" x="1064.15" y="529.8851">ServicioSesion</text></g><!--entity ServicioArticulo--><g id="elem_ServicioArticulo"><rect fill="#F1F1F1" height="46.2969" rx="2.5" ry="2.5" style="stroke:#181818;stroke-width:0.5;" width="149.3203" x="1226.34" y="496.89"/><rect fill="#F1F1F1" height="10" style="stroke:#181818;stroke-width:0.5;" width="15" x="1355.6603" y="501.89"/><rect fill="#F1F1F1" height="2" style="stroke:#181818;stroke-width:0.5;" width="4" x="1353.6603" y="503.89"/><rect fill="#F1F1F1" height="2" style="stroke:#181818;stroke-width:0.5;" width="4" x="1353.6603" y="507.89"/><text fill="#000000" font-family="sans-serif" font-size="14" lengthAdjust="spacing" textLength="109.3203" x="1241.34" y="529.8851">ServicioArticulo</text></g><!--entity ControladorPrincipal--><g id="elem_ControladorPrincipal"><rect fill="#F1F1F1" height="46.2969" rx="2.5" ry="2.5" style="stroke:#181818;stroke-width:0.5;" width="182.6045" x="1181.7" y="49"/><rect fill="#F1F1F1" height="10" style="stroke:#181818;stroke-width:0.5;" width="15" x="1344.3045" y="54"/><rect fill="#F1F1F1" height="2" style="stroke:#181818;stroke-width:0.5;" width="4" x="1342.3045" y="56"/><rect fill="#F1F1F1" height="2" style="stroke:#181818;stroke-width:0.5;" width="4" x="1342.3045" y="60"/><text fill="#000000" font-family="sans-serif" font-size="14" lengthAdjust="spacing" textLength="142.6045" x="1196.7" y="81.9951">ControladorPrincipal</text></g><!--link ControladorPrincipal to servicios--><g id="link_ControladorPrincipal_servicios"><path d="M1267.79,95.73 C1255.85,141.94 1221.81,246.98 1150,295.59 C1099.55,329.73 1059.29,271.85 1014,312.59 C1010.665,315.59 1007.8591,319.0533 1005.503,322.8237 C1004.9139,323.7662 1004.353,324.728 1003.819,325.7066 C1003.552,326.1958 1003.2917,326.6893 1003.038,327.1866 C1002.9111,327.4353 1002.7859,327.6849 1002.6623,327.9355 C1002.6005,328.0608 1005.1575,322.7878 1005.0966,322.9136 " fill="none" id="ControladorPrincipal-to-servicios" style="stroke:#181818;stroke-width:1.0;"/><polygon fill="#181818" points="1002.4781,328.3121,1010.0048,321.96,1004.6601,323.8133,1002.8068,318.4687,1002.4781,328.3121" style="stroke:#181818;stroke-width:1.0;"/><text fill="#000000" font-family="sans-serif" font-size="13" lengthAdjust="spacing" textLength="55.8911" x="1251" y="237.0069">gestiona</text></g><!--link servicios to gestion--><g id="link_servicios_gestion"><path d="M986.9262,398.0438 C986.801,398.0816 986.6746,398.1198 986.5468,398.1586 C986.2913,398.236 986.0306,398.3154 985.7648,398.3966 C984.7016,398.7215 983.5566,399.0768 982.3351,399.4627 C979.8921,400.2346 977.1434,401.1289 974.1316,402.1481 C962.0844,406.225 945.8288,412.3 928.1025,420.525 C892.65,436.975 851.315,462.025 826,496.89 C811.005,517.5375 800.2413,541.7969 792.5342,566.64 C788.6807,579.0616 785.5914,591.6291 783.1194,603.964 C782.5014,607.0477 781.922,610.1169 781.3789,613.1657 C781.2431,613.9278 782.1315,631.0733 782.0002,631.8328 " fill="none" id="servicios-to-gestion" style="stroke:#181818;stroke-width:1.0;"/><polygon fill="#181818" points="780.9783,637.7452,786.4527,629.5579,781.8299,632.8182,778.5696,628.1954,780.9783,637.7452" style="stroke:#181818;stroke-width:1.0;"/><text fill="#000000" font-family="sans-serif" font-size="13" lengthAdjust="spacing" textLength="186.272" x="827" y="524.5969">crea/edita/registra/autentica</text></g><!--reverse link procesos to gestion--><g id="link_procesos_gestion"><path d="M739.0269,125.4438 C738.958,125.8989 739.688,121.1055 739.6189,121.5651 C739.3426,123.4037 739.0655,125.278 738.7887,127.185 C734.36,157.6975 730,196.59 730,231.44 C730,231.44 730,231.44 730,521.03 C730,532.405 732.665,550.4937 736.6833,571.303 C738.6924,581.7076 741.0399,592.7923 743.5617,604.058 C744.1922,606.8744 744.8335,609.7021 745.4832,612.5334 C745.6456,613.2412 745.8086,613.9492 745.972,614.6573 C746.0537,615.0114 746.1355,637.6624 746.2175,638.0165 " fill="none" id="procesos-backto-gestion" style="stroke:#181818;stroke-width:1.0;"/><polygon fill="#181818" points="739.9293,119.512,734.6212,127.8081,739.1773,124.4552,742.5302,129.0113,739.9293,119.512" style="stroke:#181818;stroke-width:1.0;"/><text fill="#000000" font-family="sans-serif" font-size="13" lengthAdjust="spacing" textLength="38.5557" x="731" y="399.3069">aplica</text></g><!--link gestion to enums--><g id="link_gestion_enums"><path d="M782.612,726.9557 C784.3214,727.0862 786.2673,727.2377 788.4335,727.4105 C797.0982,728.1018 809.2877,729.1352 823.9653,730.5434 C853.3206,733.36 892.6287,737.6762 933.5975,743.755 C1015.535,755.9125 1104.115,775.12 1133,803.48 C1136.2013,806.6225 1138.9058,810.1939 1141.187,814.0443 C1141.7572,815.0068 1142.3011,815.9869 1142.8196,816.982 C1143.0789,817.4795 1143.3318,817.9809 1143.5785,818.4857 C1143.7019,818.7381 1141.2564,835.8652 1141.3767,836.1193 " fill="none" id="gestion-to-enums" style="stroke:#181818;stroke-width:1.0;"/><polygon fill="#181818" points="1143.944,841.5423,1143.7084,831.6963,1141.8046,837.0232,1136.4777,835.1194,1143.944,841.5423" style="stroke:#181818;stroke-width:1.0;"/><text fill="#000000" font-family="sans-serif" font-size="13" lengthAdjust="spacing" textLength="38.9619" x="1121" y="791.5469">utiliza</text></g><!--link procesos to criteriosSeleccion--><g id="link_procesos_criteriosSeleccion"><path d="M739.533,73.516 C739.0767,73.5374 738.6032,73.5597 738.1127,73.5831 C736.1507,73.6764 733.9174,73.7861 731.4311,73.913 C721.4859,74.4209 707.4942,75.2065 690.6434,76.3423 C656.9419,78.6141 611.8038,82.2869 564.7275,87.9412 C470.575,99.25 368.67,118.485 335,150.29 C331.73,153.3787 328.9588,156.9094 326.6134,160.7296 C326.0271,161.6846 325.4673,162.6578 324.9331,163.6466 C324.666,164.1411 324.4052,164.6394 324.1507,165.1414 C324.0235,165.3924 323.8977,165.6443 323.7736,165.8971 C323.7115,166.0235 326.2615,160.7483 326.2002,160.8751 " fill="none" id="procesos-to-criteriosSeleccion" style="stroke:#181818;stroke-width:1.0;"/><polygon fill="#181818" points="323.5885,166.2769,331.1072,159.9154,325.7649,161.7754,323.9048,156.4331,323.5885,166.2769" style="stroke:#181818;stroke-width:1.0;"/><text fill="#000000" font-family="sans-serif" font-size="13" lengthAdjust="spacing" textLength="38.5557" x="379" y="138.3569">aplica</text></g><!--SRC=[VLD1Ri8m4Bpd5Vb0n9r39Oh4hIg2zXJbu3fBkjIrexL3HH5_xq9YnoPHS_FCU6VNEodNHZioIjI6jeHQOYjKbMMja5-YWHnqzstpIvRpLpfipHui6btrm1i3At8eEsMgx3fUQy0wbbsok-u1PSi34B2NyANlrIAy6j7Oi0TGDmgSnwwp7k-s4uGcgJzWKQcDaCxGUKhiZ8fEguvLCGidj0co_XH8__NZNobfQ7ow2RI3fbE2PfYjiGveEiHCiNkVwUEzVbYW4uHUevsrP2JOq66vxSyxaD3ASUS3_8nrpOke7hIneKVte43s5I8xISXpy8e2xOtN0nFT6_913ZPu74OiN-1e2EnmsZiI3ffpOd8R5kMO0qvJ3qoo5fWa305DOk_19FhPt9-K5xNvqKNn57Moz9aGMOG6uK2oJ1A81TJen8AWGSi3BaJdGBCht_N2Gi71tMw61IvpqQfKmtJ_Ao_ppg72NoQ3_iREhCEN-GC0]--></g></svg>